<mxfile host="app.diagrams.net" modified="2023-05-09T15:12:41.253Z" agent="Mozilla/5.0 (Macintosh; Intel Mac OS X 10_15_7) AppleWebKit/537.36 (KHTML, like Gecko) Chrome/113.0.0.0 Safari/537.36" version="21.2.9" etag="ndqRURjYka65-LssSeyL" type="github">
  <diagram name="Seite-1" id="TgTiWXcOcsAniR1aSoTC">
    <mxGraphModel>
      <root>
        <mxCell id="0" />
        <mxCell id="1" parent="0" />
      </root>
    </mxGraphModel>
  </diagram>
</mxfile>
